<?xml version="1.0" encoding="UTF-8"?>
<svg id="katman_1" xmlns="http://www.w3.org/2000/svg" version="1.1" viewBox="0 0 1024 1024">
  <!-- Generator: Adobe Illustrator 30.1.0, SVG Export Plug-In . SVG Version: 2.1.1 Build 136)  -->
  <defs>
    <style>
      .st0 {
        fill: #020202;
      }

      .st1 {
        fill: #e5e7e9;
      }
    </style>
  </defs>
  <path class="st0" d="M515.4,634.4c-1.8,1.4-4.2,1.7-6.2.1l-71.5-56.2-74.2-58.8-21.3-65.6c-1.1-3.3-1-5.9.6-9.1l27.5-82.4-16.3-16.6-10.3-56.5c-.4-2.1-1.1-5.7.4-7.3,8.7-9.2,17.4-17.5,27.2-26l47.8-.3,23.3,16.6,69.6-17.5,70,17.6,24.5-16.6,47.2.2c9.1,7.8,17.2,15.6,25.6,23.7s2.8,4.1,2.2,7l-10.8,59.1-16.2,16.5,28.9,87.5-22.5,69.2-98.4,78.5-47.1,37Z"/>
  <path class="st1" d="M663.5,449.7l-19.2,58.2-128.3,102c-2.4,2.3-4.8,2-7.1,0l-51.2-40.7-78.1-61.9c-5.8-19.6-11.7-38.1-18.7-57.6l29.4-86.5c1.3-3.7.9-7.1-2.2-9.5l-16.4-16-9.1-47.7,16.3-15.5c11.5-.2,22.5-.4,33.8.2l25.5,18.1,75.1-18.7,73.3,19,25.4-18.6h33.9c0,0,16.1,15.8,16.1,15.8l-9.6,47.8-16.6,15.7c-2.8,2.4-3.5,5.8-2,9.4l29.6,86.5Z"/>
  <polygon class="st0" points="390.4 501.2 372.9 449.9 399.7 375.9 481.1 572.1 390.4 501.2"/>
  <polygon class="st0" points="634.6 501.4 543.6 572.6 581.7 481.7 625.1 375.6 651.4 449.8 634.6 501.4"/>
  <path class="st0" d="M614,350.5c.9,1.2,1.4,2.3,1.4,3s-1.1,2.1-2.4,2.5l-82.9,31c-4-.5-10.5-3.7-11.6-7.1l-.2-92,57.4,14.4c2.5.6,3.6,3.2,5.3,4.7l33,43.5Z"/>
  <path class="st0" d="M494.9,387.2l-83.5-31.3c-1.5-.6-2.1-2-1.9-3.3l37.4-49.9,59.2-14.6.3,92.9c-3.2,2.4-7.3,6-11.5,6.2Z"/>
  <polygon class="st0" points="562.2 497.5 555.8 449.8 537.6 396.2 614.8 368.9 586 440 562.2 497.5"/>
  <polygon class="st0" points="468.7 451.7 462.5 497.2 435 430.9 409.8 368.5 487.1 396.3 468.7 451.7"/>
  <path class="st0" d="M546.9,512.8c2,2.8-30.6,21.7-34.5,24.1l-36.1-23.8,30.6-10.5c.4-3.6,1.4-8.9-.4-12l-22.4-15.8c-.4-6.9-.3-12.5.7-19.6,37.1-11.5,18.1-11.6,55.1.2,1.2,7.4,1.1,12.7,1.1,19.4l-22.4,15.5c-1.6,2.5-1.2,9.1.3,11.7,4.5,2.9,26.7,8.4,28.3,10.5Z"/>
  <path class="st0" d="M522.8,589.2c-1.8,4.1-7.4,6.6-10.5,8.1-2.9-1.3-7.9-4-9.4-7.2l-27.3-61.7,36.7,21.9,36.5-21.4-26,60.3Z"/>
  <path class="st0" d="M399.3,345.9c-6-4.4-14.1-8.7-16.6-15.2-4.4-11.5-4.7-23.8-7.9-35.5,3.4-3.6,5.9-6.2,9.4-9.3l23.6-.5,21,14.8c1.1.7,1.9,1.6,2.1,2.5s-.3,2.1-1,3.2l-30.5,40Z"/>
  <path class="st0" d="M642,330.1c-1.6,7.2-10.4,11.2-15.9,16.1-11.9-13.4-21.4-26.7-31.4-40.8-1-1.5-.6-3.8,1-4.9,6.8-4.4,12.9-11,20.6-14.1,7.2-2.8,15.9.6,23.8-1.1l9.7,9.7-7.8,35Z"/>
</svg>