<?xml version="1.0" encoding="UTF-8"?>
<svg id="katman_2" data-name="katman 2" xmlns="http://www.w3.org/2000/svg" viewBox="0 0 370.62 513.32">
  <defs>
    <style>
      .cls-1, .cls-2, .cls-3 {
        fill: #ffffff;
      }
      .cls-4 {
        fill: #10b981;
      }
    </style>
  </defs>
  <g id="katman_1" data-name="katman 1">
    <g>
      <path class="cls-3" d="M188.62,379.6c-1.8,1.42-4.2,1.69-6.17.14l-71.49-56.24-74.21-58.82-21.27-65.56c-1.06-3.27-1-5.93.57-9.13l27.47-82.41-16.33-16.62-10.29-56.49c-.39-2.13-1.13-5.68.42-7.34C25.99,17.89,34.75,9.59,44.53,1.12l47.76-.27,23.29,16.64L185.14,0l70.03,17.56L279.7,1l47.23.2c9.07,7.83,17.18,15.58,25.62,23.66,2.06,1.97,2.76,4.12,2.23,7.04l-10.85,59.05-16.19,16.49,28.91,87.49-22.53,69.2-98.37,78.47-47.13,37Z"/>
      <path class="cls-1" d="M68.53,512.84H1.6c-1.47-3.98-2.7-9.89,0-13.21l46.05-56.43-45.78-.56c-1.66-4.55-1.72-9.39-.31-14.4l67.37-.11c.15,4.21,2.07,10.17-.56,13.36l-46.75,56.79,46.72.46c1.15,4.47,1.03,8.44.19,14.1Z"/>
      <path class="cls-3" d="M142.42,478.72c1.36.79,5.05,9.49,3.85,11.21-1.79,2.57-16.59.34-21.55,1.85l-9.78,20.39c-2.99,1.91-9.45,1.04-12.89.18-1.75-.44-1.04-3.62-.49-4.89l33.72-78.36c3.59-2.43,10.06-1.69,14.25-.23l22.01,53.08c4.13,9.97,7.99,19.41,11.61,29.79-5.1,2.16-10.08,1.68-14.93.55l-25.97-61.75-11.33,26.82c3.67,1.48,7.86-.78,11.52,1.36Z"/>
      <path class="cls-1" d="M339.97,511.7c-4.57,2.14-9.66,1.8-14.32.03l-.25-68.66-27.74-.45c-1.78-4.29-1.47-9.51-.37-14.44l72.07-.23c1.92,4.58,1.27,9.29.63,14.31l-29.85.46-.17,68.98Z"/>
      <path class="cls-2" d="M276.35,498.73c1.82,4.44,1.43,9.13.29,14.1l-59.2-.13-.22-83.66c4.53-1.89,9.58-1.63,14.54-.31l.22,69.89,44.37.12Z"/>
      <path class="cls-4" d="M336.67,194.96l-19.18,58.17-128.26,101.98c-2.38,2.28-4.76,1.96-7.13.07l-51.16-40.71-78.09-61.87c-5.81-19.64-11.75-38.09-18.66-57.61l29.38-86.47c1.26-3.7.89-7.13-2.18-9.5l-16.38-16.01-9.14-47.67,16.31-15.53c11.52-.25,22.51-.4,33.85.17l25.46,18.13,75.07-18.71,73.26,19.03,25.45-18.6,33.92.08,16.12,15.71-9.61,47.77-16.6,15.72c-2.84,2.42-3.54,5.77-2.05,9.37l29.6,86.5Z"/>
      <polygon class="cls-3" points="63.6 246.36 46.15 195.07 72.96 121.15 154.34 317.27 63.6 246.36"/>
      <polygon class="cls-3" points="307.86 246.6 216.81 317.8 254.93 226.88 298.34 120.78 324.67 195.02 307.86 246.6"/>
      <path class="cls-3" d="M287.19,95.75c.91,1.19,1.41,2.32,1.42,2.99.02.77-1.11,2.07-2.36,2.53l-82.94,31.04c-4-.46-10.48-3.68-11.6-7.14l-.22-92.01,57.37,14.4c2.47.62,3.56,3.17,5.33,4.7l32.99,43.48Z"/>
      <path class="cls-3" d="M168.11,132.36l-83.5-31.33c-1.47-.55-2.07-1.97-1.89-3.3l37.45-49.9,59.18-14.59.29,92.93c-3.18,2.4-7.32,5.95-11.52,6.19Z"/>
      <polygon class="cls-3" points="235.4 242.71 228.98 195.03 210.82 141.38 288 114.08 259.21 185.23 235.4 242.71"/>
      <polygon class="cls-3" points="141.95 196.86 135.73 242.46 108.26 176.09 82.98 113.67 160.34 141.56 141.95 196.86"/>
      <path class="cls-3" d="M220.14,258.03c2.01,2.78-30.6,21.68-34.55,24.12l-36.09-23.76,30.56-10.46c.39-3.57,1.44-8.94-.45-11.98l-22.43-15.8c-.37-6.87-.27-12.46.7-19.58,37.09-11.52,18.14-11.63,55.06.21,1.2,7.36,1.12,12.68,1.07,19.43l-22.41,15.55c-1.6,2.53-1.17,9.09.27,11.71,4.49,2.87,26.72,8.42,28.26,10.55Z"/>
      <path class="cls-3" d="M196.02,334.45c-1.77,4.1-7.44,6.56-10.53,8.13-2.87-1.35-7.92-3.97-9.35-7.2l-27.33-61.67,36.71,21.86,36.47-21.45-25.96,60.33Z"/>
      <path class="cls-3" d="M72.48,91.11c-6.04-4.35-14.09-8.66-16.58-15.19-4.38-11.48-4.68-23.77-7.94-35.51,3.36-3.64,5.89-6.25,9.36-9.28l23.6-.49,21.02,14.8c1.05.74,1.89,1.58,2.06,2.46.21,1.09-.28,2.15-1.02,3.21l-30.51,40Z"/>
      <path class="cls-3" d="M315.27,75.33c-1.6,7.23-10.43,11.17-15.95,16.12-11.86-13.38-21.36-26.73-31.44-40.81-1.04-1.46-.56-3.84,1.04-4.86,6.81-4.36,12.86-11.02,20.64-14.06,7.17-2.8,15.95.61,23.77-1.14l9.72,9.74-7.77,35Z"/>
    </g>
  </g>
</svg>
